My Soul to Take (2010)(DivX)(nl subs) NTSC TBS






Verenigde Staten
Horror / Thriller
107 minuten

geregisseerd door Wes Craven
met Max Thieriot, Shareeka Epps en Denzel Whitaker

Een groep jongeren krijgt te maken met een seriemoordenaar die 15 jaar eerder is gestorven en dan uitgerekend precies op de dag dat zij werden geboren. De seriemoordenaar duikt vijftien jaar na zijn vermeende dood weer op om de zeven kinderen te vermoorden

Storyline

In the sleepy town of Riverton, legend tells of a serial killer who swore he would return to murder the seven children born the night he died. Now, 16 years 
later, people are disappearing again. Has the psychopath been reincarnated as one of the seven teens, or did he survive the night he was left for dead? Only one of the kids knows the answer. Adam "Bug" Heller (Max Thieriot) was supposed to die on the last night the Riverton Ripper wrecked havoc on that terrifying night. Unaware of terrifying crimes being committed to the seven children, he has been plagued by nightmares of their murders while not aware if they hold true or if he is simply imagining the images that haunt him. But if Bug hopes to save his friends from the monster that's returned, he must face an evil that won't rest...until it finishes the job it began the day he was born


SOURCE..........: My Soul To Take DVDR-MPTDVD
SIZE............: 1.45GB
FORM............: AVI
VIDEO CODEC.....: XVID 
BITRATE.........: 1498 Kbit/s
WIDTH & HEIGHT..: 720 X 320
FRAMES/S........: 23.00 Fps
AUDIO...........: English
AUDIO CODE......: AC3
BITRATE.........: 448kbps
CHANNELS........: 5
SAMPLING........: 48.0 kHz
Subtitles.......: Dutch srt
Categorie.......: Beeld 
Formaat.........: DivX 
Bron............: Retail
Ondertitels.....: Nederlands (extern)
Thanks..........: Hannes3

General

Format                           : DivX
Format/Info                      : Hack of AVI
File size                        : 1.46 GiB
Duration                         : 1h 47mn
Overall bit rate                 : 1 946 Kbps

Video
ID                               : 0
Format                           : MPEG-4 Visual
Format profile                   : Advanced Simple@L5
Format settings, BVOP            : Yes
Format settings, QPel            : No
Format settings, GMC             : No warppoints
Format settings, Matrix          : Default (H.263)
Muxing mode                      : Packed bitstream
Codec ID                         : DX50
Codec ID/Hint                    : DivX 5
Duration                         : 1h 47mn
Bit rate                         : 1 489 Kbps
Width                            : 720 pixels
Height                           : 320 pixels
Display aspect ratio             : 2.25:1
Frame rate                       : 23.976 fps
Color space                      : YUV
Chroma subsampling               : 4:2:0
Bit depth                        : 8 bits
Scan type                        : Progressive
Bits/(Pixel*Frame)               : 0.269
Stream size                      : 1.12 GiB (76%)
Title                            : Video 
Writing library                  : XviD 1.2.1 (UTC 2008-12-04)

Audio
ID                               : 1
Format                           : AC-3
Format/Info                      : Audio Coding 3
Mode extension                   : CM (complete main)
Codec ID                         : 2000
Duration                         : 1h 47mn
Bit rate mode                    : Constant
Bit rate                         : 448 Kbps
Channel(s)                       : 6 channels
Channel positions                : Front: L C R, Side: L R, LFE
Sampling rate                    : 48.0 KHz
Bit depth                        : 16 bits
Stream size                      : 344 MiB (23%)
Alignment                        : Split accross interleaves
Interleave, duration             : 42 ms (1.00 video frame)
Interleave, preload duration     : 500 ms
Title                            : Audio   
 
 
http://www.moviemeter.nl/film/55264   
http://www.imdb.com/title/tt0872230 


Black-Sam